<?xml version="1.0" encoding="utf-8"?>
<!-- Generator: Adobe Illustrator 25.0.1, SVG Export Plug-In . SVG Version: 6.00 Build 0)  -->
<svg version="1.1" id="Capa_1" xmlns="http://www.w3.org/2000/svg" xmlns:xlink="http://www.w3.org/1999/xlink" x="0px" y="0px"
	 viewBox="0 0 1920 1080" style="enable-background:new 0 0 1920 1080;" xml:space="preserve">
<style type="text/css">
	.st0{fill:#CF232F;}
	.st1{fill:#FEFEFE;}
</style>
<g>
	<path class="st0" d="M947.06,580.58c0,34.78-0.17,69.57,0.14,104.34c0.06,7.03-1.02,10.01-9.17,9.77
		c-22.22-0.65-44.47-0.47-66.71-0.07c-6.64,0.12-8.78-1.56-8.68-8.46c0.39-27.37-0.04-54.75,0.3-82.12c0.09-7.08-1.14-10.2-9.34-10
		c-23.83,0.59-47.7,0.4-71.54,0.08c-5.94-0.08-7.68,1.68-7.62,7.6c0.28,27.69-0.23,55.4,0.34,83.08c0.17,8.32-2.45,10.04-10.25,9.85
		c-22.55-0.54-45.12-0.23-67.68-0.15c-4.11,0.01-7.36,0.35-7.2-5.72c1.18-46.33-2.85-92.82,2.29-138.99
		c5.45-48.98,21.99-93.4,61.13-126.2c37.99-31.84,82.94-43.96,131.7-44.23c18.05-0.1,36.11,0.36,54.14-0.21
		c6.85-0.21,8.52,2.36,9.14,8.44c1.86,18.24,4.13,36.44,6.51,54.62c0.74,5.61,0.11,7.55-6.69,7.3c-28.63-1.06-57.28-2-85.91,1.09
		c-37.65,4.07-68.79,30.7-78.35,67.35c-1.29,4.93-0.41,6.18,4.56,6.14c22.56-0.17,45.12-0.24,67.68,0.04
		c5.67,0.07,7.14-2.03,7.05-7.31c-0.26-14.49,0.26-29-0.24-43.47c-0.23-6.62,2.68-7.17,8.04-7.11c22.88,0.23,45.77,0.36,68.64-0.06
		c6.53-0.12,7.91,1.99,7.86,8.11C946.92,509.72,947.06,545.15,947.06,580.58z"/>
	<path class="st0" d="M1424.93,543.8c-1.26,44.7-10.97,87.48-40.18,122.21c-42.05,50.01-113.75,45.26-149.08-10.38
		c-25.57-40.28-33.14-83.91-29.17-130.14c3.49-40.66,24.21-63.53,64.11-73.1c30.28-7.27,60.63-7.12,90.83,0.53
		c39.21,9.94,61.7,37.83,63.47,78.34C1425.09,535.43,1424.93,539.62,1424.93,543.8z"/>
	<path class="st0" d="M985.44,607.43c0-25.44,0.37-50.9-0.21-76.33c-0.19-8.34,2.45-10.26,10.31-9.93c14.8,0.63,29.67,0.65,44.46,0
		c8.27-0.37,11.05,1.61,10.89,10.48c-0.59,32.2-0.24,64.41-0.23,96.62c0,11.34,0.85,12.04,12.16,9.57
		c24.85-5.44,39.74-22.52,50.78-43.87c7.68-14.85,11.56-30.55,9.87-47.46c-2.49-24.88-16.72-38.26-41.94-38.45
		c-29.97-0.23-59.95-0.05-89.92-0.05c-15.87,0-15.95-0.01-13.48-15.46c1.88-11.75,4.04-23.45,6.03-35.18
		c0.56-3.31,1.06-6.28,5.63-6.2c39.61,0.72,79.38-2.56,118.82,1.43c52.81,5.34,78.09,40.09,79.66,90.18
		c2.75,87.75-59.66,150.19-149.45,151.65c-15.14,0.25-30.31-0.26-45.44,0.18c-6.25,0.18-8.16-1.55-8.07-7.96
		C985.65,660.25,985.44,633.84,985.44,607.43z"/>
	<path class="st0" d="M1626.84,451.2c-8.08,16.23-15.37,30.85-22.64,45.48c-10.87,21.88-21.52,43.87-32.74,65.56
		c-2.69,5.21-2.44,8.95,0.22,14.04c18.77,35.88,37.18,71.96,55.66,107.99c1.57,3.06,2.87,6.27,4.66,10.19
		c-23.21,0-45.39-0.16-67.58,0.11c-5.44,0.07-6.16-3.74-7.65-7.11c-10.04-22.6-20.01-45.24-30.25-68.44
		c-4.85,5.51-6.5,12.08-9.2,18.06c-7.67,16.98-15.15,34.04-22.79,51.03c-1.37,3.05-1.98,6.52-6.98,6.46
		c-21.77-0.26-43.55-0.11-66.45-0.11c16.68-33.24,31.23-66.25,49.44-97.12c12.13-20.56,11.42-36.89-0.35-57
		c-16.5-28.19-29.87-58.21-45.43-89.14c19.34,0,37.16,0,54.97,0c18.04,0,18.02,0.01,25.06,16.83c6.78,16.21,13.6,32.39,21.13,50.34
		c8.74-21.02,17-40.03,24.45-59.35c2.4-6.22,5.51-8.11,12-7.97C1583.28,451.47,1604.2,451.2,1626.84,451.2z"/>
	<path class="st0" d="M287.36,533.27c0-36.07-0.06-72.15,0.02-108.22c0.06-26.67,16.78-43.38,43.46-43.42
		c49.32-0.06,98.63-0.07,147.95,0c25.71,0.04,42.67,16.31,42.87,41.93c0.34,41.22,0.05,82.44,0.14,123.66
		c0.01,6.52-1.84,10.09-9.36,10.16c-10.28,0.09-20.64,0.79-30.8,2.33c-6.29,0.95-6.75-1.36-6.71-6.43
		c0.2-23.51-0.26-47.03,0.29-70.53c0.18-7.51-2.14-9.2-9.15-8.82c-11.25,0.6-22.56,0.39-33.83,0.06c-5.1-0.15-6.8,1.56-6.54,6.58
		c0.35,6.75-0.18,13.54,0.16,20.28c0.29,5.6-1.16,8.13-7.46,7.86c-11.58-0.49-23.21-0.44-34.8-0.01c-5.72,0.21-6.45-1.74-5.05-6.61
		c5.77-20.14,23.57-35.18,44.51-37.8c16.06-2.01,32.16-1.98,48.23-1.01c6.77,0.41,8.5-1.67,7.52-7.96
		c-1.43-9.22-2.5-18.5-3.52-27.77c-0.35-3.17-0.74-5.47-4.88-5.39c-25.38,0.5-50.94-1.11-75.52,7.57
		c-39.68,14.01-61.32,42.8-68.85,83.34c-4.51,24.29-2.27,48.81-2.75,73.24c-0.25,12.56,1.95,25.56-0.63,37.56
		c-2.64,12.27-17.72,15.81-24.69,25.83c-1.81,2.6-4.17,5.52-7.92,4.11c-4.05-1.52-2.63-5.45-2.63-8.45
		C287.34,607.99,287.36,570.63,287.36,533.27z"/>
	<path class="st0" d="M403.4,690.6c-25.77,0-51.54,0-77.31,0c-11.23,0-20.78-3.88-28.18-12.46c-6.83-7.93-6.58-12.63,1.34-19.56
		c27.23-23.83,58.89-40.06,92.36-53.03c37.15-14.4,75.62-22.92,115.46-24.93c11.92-0.6,14.61,1.9,14.67,13.35
		c0.09,18.02,0.22,36.05-0.02,54.07c-0.36,26.68-16.5,42.54-42.94,42.55C453.65,690.61,428.52,690.6,403.4,690.6z"/>
	<path class="st0" d="M372.49,594.35c0-13.89,0.16-26.37-0.08-38.85c-0.09-4.42,0.99-6.23,5.82-6.13
		c13.8,0.29,27.61,0.24,41.41,0.02c4.42-0.07,6.06,1.1,6.29,5.85c0.78,15.8,1.01,15.81-13.46,21.14
		C399.25,581.25,386.45,587.04,372.49,594.35z"/>
	<path class="st1" d="M1274.07,553.62c0-4.18-0.36-8.39,0.06-12.53c2.31-22.71,17.51-36.06,40.8-36.08
		c24.23-0.02,38.68,12.2,40.71,35.73c2.57,29.66-4.16,57.59-19.05,83.23c-11.59,19.95-31.65,19.51-44.67-0.27
		C1281.71,608.21,1274.22,579.38,1274.07,553.62z"/>
</g>
</svg>
