<?xml version="1.0" encoding="utf-8"?>
<!-- Generator: Adobe Illustrator 25.0.1, SVG Export Plug-In . SVG Version: 6.00 Build 0)  -->
<svg version="1.1" id="Capa_1" xmlns="http://www.w3.org/2000/svg" xmlns:xlink="http://www.w3.org/1999/xlink" x="0px" y="0px"
	 viewBox="0 0 1920 1080" style="enable-background:new 0 0 1920 1080;" xml:space="preserve">
<style type="text/css">
	.st0{fill:#FFFFFF;}
	.st1{fill:url(#SVGID_1_);}
	.st2{fill:url(#SVGID_2_);}
	.st3{fill:#DF3A8E;}
	.st4{fill:url(#SVGID_3_);}
	.st5{fill:url(#SVGID_4_);}
</style>
<path class="st0" d="M784.53,955.87c-225.87,0-409.63-183.76-409.63-409.63V167.48c0-24.37,19.75-44.13,44.13-44.13h716.1
	c225.87,0,409.63,183.76,409.63,409.63v378.77c0,24.37-19.75,44.13-44.13,44.13H784.53z"/>
<linearGradient id="SVGID_1_" gradientUnits="userSpaceOnUse" x1="330.7675" y1="539.611" x2="1588.8724" y2="539.611">
	<stop  offset="0" style="stop-color:#4D4D4D"/>
	<stop  offset="1" style="stop-color:#666666"/>
</linearGradient>
<path class="st1" d="M1135.11,167.48c201.87,0,365.51,163.64,365.51,365.5v378.77h-716.1c-201.86,0-365.5-163.65-365.5-365.5V167.48
	H1135.11 M1135.11,79.22H419.02c-48.74,0-88.26,39.51-88.26,88.26v378.77c0,250.2,203.56,453.75,453.76,453.75h716.1
	c48.74,0,88.25-39.51,88.25-88.25V532.98C1588.87,282.78,1385.32,79.22,1135.11,79.22"/>
<linearGradient id="SVGID_2_" gradientUnits="userSpaceOnUse" x1="494.5502" y1="459.6371" x2="879.4001" y2="459.6371">
	<stop  offset="0" style="stop-color:#DF3A8E"/>
	<stop  offset="1" style="stop-color:#95275F"/>
</linearGradient>
<path class="st2" d="M704.64,667.76c-61.2,0-112.06-19.74-151.15-58.65c-39.11-38.94-58.93-89.45-58.93-150.14
	c0-39.27,9.03-74.72,26.84-105.33c17.8-30.59,43.64-55.54,76.82-74.16c33.14-18.56,69.29-27.97,107.47-27.97
	c32.46,0,64.16,6.95,94.21,20.66c30.03,13.68,56.3,33.44,78.06,58.73c2.1,2.44,1.92,6.09-0.4,8.31l-51.23,48.84
	c-1.12,1.08-2.62,1.67-4.17,1.67c-0.05,0-0.1,0-0.15,0c-1.61-0.04-3.13-0.72-4.23-1.89c-33.5-35.4-71.59-53.35-113.23-53.35
	c-34.94,0-64.75,12.09-88.64,35.94c-23.89,23.87-36,53.7-36,88.69c0,24.46,5.37,46.46,15.97,65.39
	c10.54,18.82,25.67,33.81,44.97,44.53c19.38,10.79,41.26,16.26,65.03,16.26c20.3,0,39.07-3.83,55.77-11.39
	c16.84-7.58,35.77-21.75,56.25-42.1c1.14-1.13,2.67-1.76,4.26-1.76c0.02,0,0.05,0,0.08,0.01c1.62,0.02,3.17,0.69,4.29,1.86
	l49.67,51.82c2.3,2.39,2.23,6.19-0.14,8.51c-28.84,28.15-56.58,47.98-82.44,58.94C767.69,662.19,737.76,667.76,704.64,667.76"/>
<path class="st3" d="M705.68,257.55c31.75,0,62.3,6.71,91.69,20.12c29.39,13.39,54.73,32.46,75.99,57.18l-51.23,48.85
	c-34.84-36.83-74.06-55.24-117.61-55.24c-36.76,0-67.73,12.56-92.92,37.7c-25.16,25.15-37.77,56.12-37.77,92.97
	c0,25.66,5.59,48.44,16.74,68.34c11.14,19.9,26.91,35.53,47.31,46.86c20.4,11.36,43.04,17.02,67.97,17.02
	c21.25,0,40.67-3.97,58.26-11.92c17.61-7.93,36.95-22.38,58.03-43.32l49.67,51.82c-28.42,27.73-55.28,46.98-80.57,57.7
	c-25.29,10.74-54.16,16.1-86.6,16.1c-59.83,0-108.78-18.96-146.89-56.89c-38.11-37.94-57.16-86.55-57.16-145.85
	c0-38.36,8.67-72.45,26.02-102.29c17.35-29.82,42.21-53.78,74.55-71.93C633.53,266.62,668.35,257.55,705.68,257.55 M705.68,245.46
	c-39.23,0-76.38,9.67-110.42,28.74c-34.13,19.16-60.74,44.86-79.1,76.4c-18.35,31.56-27.65,68.02-27.65,108.37
	c0,62.35,20.43,114.3,60.71,154.42c40.26,40.09,92.55,60.42,155.42,60.42c33.94,0,64.66-5.74,91.32-17.06
	c26.54-11.25,54.91-31.5,84.29-60.17c4.75-4.63,4.87-12.22,0.29-17.02l-49.67-51.81c-2.24-2.34-5.33-3.68-8.58-3.73h-0.15
	c-3.18,0-6.25,1.26-8.51,3.51c-19.97,19.84-38.3,33.59-54.48,40.88c-15.92,7.21-33.85,10.86-53.3,10.86
	c-22.73,0-43.62-5.21-62.08-15.5c-18.32-10.17-32.67-24.37-42.64-42.2c-10.09-18.01-15.2-39.02-15.2-62.44
	c0-33.79,11.2-61.4,34.23-84.42c23.03-22.99,50.64-34.16,84.38-34.16c40.47,0,76.07,16.83,108.84,51.46
	c2.21,2.34,5.26,3.7,8.47,3.78c0.1,0,0.2,0,0.3,0c3.11,0,6.09-1.19,8.34-3.34l51.23-48.85c4.65-4.44,5.02-11.75,0.82-16.63
	c-22.35-25.96-49.31-46.25-80.14-60.29C771.54,252.6,739.01,245.46,705.68,245.46"/>
<linearGradient id="SVGID_3_" gradientUnits="userSpaceOnUse" x1="867.8606" y1="459.6362" x2="1279.934" y2="459.6362">
	<stop  offset="0" style="stop-color:#DF3A8E"/>
	<stop  offset="1" style="stop-color:#95275F"/>
</linearGradient>
<path class="st4" d="M1075.21,667.76c-59.21,0-109.12-20.79-148.35-61.78c-39.15-40.89-59-90.17-59-146.49
	c0-37.71,9.25-72.87,27.51-104.51c18.25-31.67,43.7-57.11,75.63-75.59c31.91-18.5,66.79-27.89,103.67-27.89
	c55.87,0,104.56,20.49,144.73,60.9c40.17,40.41,60.55,90.35,60.55,148.41c0,57.55-20.1,106.94-59.74,146.83
	C1180.52,647.54,1131.74,667.76,1075.21,667.76 M1073.88,335.27c-33.75,0-62.52,11.89-85.51,35.32
	c-22.99,23.46-34.64,53.82-34.64,90.22c0,40.44,14.66,72.83,43.58,96.27c22.52,18.38,48.72,27.69,77.9,27.69
	c32.88,0,61.29-12.06,84.43-35.85c23.19-23.82,34.95-53.64,34.95-88.63c0-34.84-11.84-64.72-35.21-88.81
	C1136.05,347.45,1107.29,335.27,1073.88,335.27"/>
<path class="st3" d="M1074.67,257.56c54.46,0,101.27,19.71,140.44,59.11c39.19,39.42,58.78,87.47,58.78,144.15
	c0,56.17-19.34,103.68-57.98,142.57c-38.67,38.88-85.58,58.34-140.7,58.34c-57.77,0-105.77-19.97-143.98-59.92
	c-38.22-39.92-57.32-87.37-57.32-142.3c0-36.78,8.9-70.63,26.7-101.49c17.8-30.88,42.26-55.33,73.42-73.37
	C1005.16,266.57,1038.73,257.56,1074.67,257.56 M1075.21,590.82c34.73,0,64.33-12.56,88.76-37.68
	c24.44-25.09,36.66-56.06,36.66-92.85c0-36.64-12.3-67.64-36.92-93.02c-24.62-25.38-54.55-38.05-89.82-38.05
	c-35.63,0-65.56,12.4-89.83,37.13c-24.27,24.77-36.38,56.26-36.38,94.46c0,42.54,15.28,76.2,45.82,100.97
	C1017.23,581.15,1044.47,590.82,1075.21,590.82 M1074.67,245.46c-37.96,0-73.86,9.66-106.71,28.71
	c-32.84,19.01-59.03,45.18-77.83,77.79c-18.78,32.57-28.31,68.75-28.31,107.53c0,57.92,20.41,108.61,60.68,150.67
	c40.41,42.23,91.79,63.65,152.71,63.65c58.2,0,108.43-20.82,149.27-61.9c40.8-41.05,61.5-91.89,61.5-151.09
	c0-59.72-20.96-111.09-62.3-152.67C1182.34,266.55,1132.2,245.46,1074.67,245.46 M1075.21,578.74c-28.14,0-52.36-8.61-74.06-26.31
	c-27.85-22.58-41.38-52.54-41.38-91.61c0-35.26,10.77-63.38,32.92-86c22.12-22.54,48.67-33.51,81.19-33.51
	c32.16,0,58.71,11.25,81.15,34.38c22.55,23.25,33.51,50.92,33.51,84.6c0,33.84-10.87,61.44-33.24,84.42
	C1133.04,567.61,1106.83,578.74,1075.21,578.74"/>
<linearGradient id="SVGID_4_" gradientUnits="userSpaceOnUse" x1="1255.1902" y1="715.4482" x2="1422.6934" y2="715.4482">
	<stop  offset="0" style="stop-color:#DF3A8E"/>
	<stop  offset="1" style="stop-color:#95275F"/>
</linearGradient>
<path class="st5" d="M1261.24,836.49c-3.34,0-6.05-2.71-6.05-6.05V810c0-1.58,0.63-3.1,1.73-4.23l69.41-70.75
	c16.29-16.5,27.21-29.82,32.46-39.59c5.04-9.4,7.59-17.85,7.59-25.11c0-7.02-2.23-12.62-6.81-17.13c-4.62-4.54-10.5-6.74-17.95-6.74
	c-7.42,0-13.43,2.68-18.38,8.21c-5.11,5.71-7.88,13.76-8.23,23.94c-0.11,3.26-2.79,5.84-6.03,5.84h-41.63
	c-1.65,0-3.23-0.68-4.37-1.87c-1.14-1.19-1.74-2.8-1.67-4.45c1.18-25.63,9.45-46.2,24.57-61.13c15.19-14.97,34.87-22.57,58.47-22.57
	c14.57,0,27.69,3.15,38.99,9.37c11.39,6.27,20.58,15.4,27.32,27.14c6.77,11.72,10.21,23.85,10.21,36.04c0,14.17-4.04,29.54-12,45.66
	c-7.82,15.86-22.16,34.69-42.64,55.98l-15.47,16.3h65.89c3.34,0,6.05,2.7,6.05,6.04v39.49c0,3.34-2.71,6.05-6.05,6.05H1261.24z"/>
<path class="st3" d="M1344.36,600.46c13.62,0,25.63,2.88,36.07,8.62c10.41,5.73,18.77,14.02,25,24.85
	c6.26,10.84,9.4,21.84,9.4,33.03c0,13.31-3.8,27.65-11.38,42.99c-7.58,15.37-21.44,33.53-41.58,54.46l-25.19,26.53h79.97v39.49
	h-155.42V810l69.41-70.75c16.77-16.97,27.93-30.64,33.47-40.96c5.53-10.31,8.31-19.64,8.31-27.97c0-8.64-2.88-15.8-8.62-21.44
	c-5.76-5.64-13.15-8.48-22.19-8.48c-9.16,0-16.78,3.42-22.88,10.22c-6.11,6.83-9.37,16.08-9.77,27.77h-41.62
	c1.11-24.2,8.71-43.23,22.78-57.11C1304.22,607.4,1322.29,600.46,1344.36,600.46 M1344.36,588.37c-25.24,0-46.34,8.18-62.71,24.29
	c-16.26,16.04-25.13,37.96-26.38,65.16c-0.15,3.3,1.06,6.52,3.34,8.9c2.28,2.39,5.44,3.74,8.74,3.74h41.62
	c6.51,0,11.86-5.16,12.08-11.67c0.31-8.84,2.49-15.42,6.7-20.11c3.8-4.23,8.2-6.2,13.87-6.2c5.87,0,10.24,1.6,13.74,5.02
	c3.4,3.34,4.99,7.42,4.99,12.8c0,6.25-2.32,13.75-6.88,22.27c-4.98,9.25-15.55,22.1-31.42,38.17l-69.44,70.78
	c-2.21,2.26-3.46,5.3-3.46,8.46v20.44c0,6.68,5.41,12.09,12.09,12.09h155.42c6.67,0,12.08-5.41,12.08-12.09v-39.49
	c0-6.67-5.41-12.09-12.08-12.09h-51.83l5.82-6.12c21.15-21.99,35.44-40.79,43.65-57.44c8.37-16.96,12.62-33.23,12.62-48.33
	c0-13.27-3.71-26.41-11.02-39.07c-7.3-12.69-17.28-22.59-29.64-29.4C1374.05,591.77,1359.96,588.37,1344.36,588.37"/>
</svg>
