<?xml version="1.0" encoding="utf-8"?>
<!-- Generator: Adobe Illustrator 25.0.1, SVG Export Plug-In . SVG Version: 6.00 Build 0)  -->
<svg version="1.1" id="Capa_1" xmlns="http://www.w3.org/2000/svg" xmlns:xlink="http://www.w3.org/1999/xlink" x="0px" y="0px"
	 viewBox="0 0 1870 450" style="enable-background:new 0 0 1870 450;" xml:space="preserve">
<style type="text/css">
	.st0{fill:#CF252F;}
</style>
<g>
	<path class="st0" d="M917.63,281.41c0,48.24-0.24,96.47,0.2,144.7c0.09,9.75-1.41,13.89-12.72,13.55
		c-30.81-0.9-61.68-0.66-92.51-0.1c-9.21,0.17-12.18-2.16-12.04-11.73c0.55-37.96-0.05-75.93,0.41-113.88
		c0.12-9.82-1.58-14.15-12.96-13.86c-33.05,0.82-66.15,0.55-99.21,0.11c-8.24-0.11-10.65,2.33-10.57,10.53
		c0.39,38.41-0.31,76.83,0.47,115.22c0.23,11.54-3.4,13.92-14.22,13.66c-31.27-0.74-62.57-0.32-93.85-0.21
		c-5.7,0.02-10.2,0.48-9.99-7.93c1.63-64.25-3.95-128.72,3.17-192.76c7.56-67.92,30.49-129.52,84.77-175.01
		C701.29,19.57,763.63,2.76,831.25,2.39c25.03-0.14,50.08,0.5,75.08-0.29c9.49-0.3,11.81,3.28,12.68,11.7
		c2.59,25.29,5.73,50.53,9.03,75.74c1.02,7.78,0.15,10.47-9.27,10.13c-39.71-1.47-79.44-2.78-119.14,1.51
		c-52.21,5.64-95.4,42.57-108.66,93.4c-1.78,6.83-0.57,8.57,6.32,8.52c31.28-0.24,62.58-0.33,93.86,0.05
		c7.87,0.1,9.9-2.82,9.77-10.14c-0.36-20.09,0.37-40.21-0.34-60.28c-0.32-9.18,3.71-9.94,11.14-9.86
		c31.73,0.32,63.47,0.49,95.2-0.09c9.06-0.17,10.97,2.76,10.9,11.24C917.44,183.15,917.63,232.28,917.63,281.41z"/>
	<path class="st0" d="M970.86,318.64c0-35.29,0.51-70.58-0.29-105.85c-0.26-11.56,3.4-14.23,14.3-13.77
		c20.52,0.87,41.14,0.91,61.66-0.01c11.47-0.51,15.33,2.23,15.1,14.53c-0.82,44.65-0.33,89.32-0.32,133.99
		c0.01,15.72,1.18,16.7,16.86,13.27c34.46-7.54,55.11-31.23,70.42-60.83c10.65-20.6,16.03-42.37,13.69-65.81
		c-3.45-34.5-23.18-53.06-58.17-53.32c-41.57-0.31-83.14-0.07-124.71-0.08c-22,0-22.12-0.02-18.69-21.44
		c2.61-16.29,5.6-32.52,8.36-48.79c0.78-4.59,1.47-8.71,7.8-8.6c54.94,1,110.08-3.55,164.78,1.99
		c73.24,7.41,108.3,55.6,110.47,125.06c3.81,121.69-82.73,208.28-207.26,210.31c-21,0.34-42.03-0.36-63.02,0.25
		c-8.67,0.25-11.32-2.14-11.2-11.03C971.15,391.9,970.86,355.27,970.86,318.64z"/>
	<path class="st0" d="M1860.34,101.99c-11.21,22.51-21.31,42.79-31.4,63.08c-15.08,30.34-29.85,60.84-45.41,90.92
		c-3.74,7.22-3.38,12.41,0.31,19.47c26.03,49.76,51.55,99.79,77.19,149.76c2.18,4.25,3.99,8.69,6.46,14.13
		c-32.18,0-62.95-0.22-93.71,0.15c-7.54,0.09-8.54-5.19-10.62-9.87c-13.93-31.34-27.74-62.73-41.95-94.91
		c-6.73,7.65-9.01,16.76-12.76,25.05c-10.64,23.54-21.01,47.2-31.6,70.77c-1.9,4.23-2.75,9.04-9.68,8.96
		c-30.19-0.36-60.39-0.15-92.16-0.15c23.13-46.09,43.31-91.88,68.56-134.69c16.82-28.52,15.84-51.16-0.48-79.04
		c-22.88-39.09-41.42-80.73-63-123.62c26.82,0,51.53,0,76.23,0c25.02,0,24.99,0.01,34.75,23.34c9.4,22.47,18.86,44.92,29.31,69.81
		c12.11-29.15,23.57-55.52,33.91-82.31c3.33-8.62,7.64-11.24,16.64-11.06C1799.94,102.37,1828.95,101.99,1860.34,101.99z"/>
	<path class="st0" d="M2.76,215.8c0-50.03-0.08-100.06,0.03-150.09C2.86,28.73,26.06,5.55,63.05,5.5
		c68.39-0.08,136.79-0.1,205.18,0.01c35.65,0.05,59.17,22.62,59.46,58.15c0.46,57.16,0.07,114.33,0.19,171.5
		c0.02,9.05-2.55,14-12.98,14.09c-14.26,0.13-28.62,1.1-42.71,3.23c-8.72,1.32-9.36-1.88-9.3-8.92c0.27-32.61-0.37-65.23,0.4-97.82
		c0.25-10.42-2.96-12.75-12.7-12.24c-15.6,0.83-31.29,0.54-46.92,0.08c-7.07-0.21-9.43,2.16-9.06,9.12
		c0.49,9.35-0.26,18.77,0.23,28.13c0.4,7.76-1.61,11.28-10.35,10.91c-16.06-0.69-32.19-0.61-48.26-0.02
		c-7.93,0.29-8.95-2.41-7.01-9.17c8-27.93,32.69-48.78,61.73-52.42c22.27-2.79,44.6-2.74,66.89-1.4
		c9.39,0.56,11.79-2.31,10.43-11.04c-1.99-12.78-3.47-25.65-4.89-38.51c-0.49-4.4-1.03-7.58-6.77-7.47
		c-35.2,0.69-70.65-1.53-104.73,10.5c-55.03,19.43-85.04,59.35-95.48,115.57c-6.26,33.69-3.15,67.69-3.81,101.56
		c-0.34,17.41,2.71,35.44-0.88,52.09c-3.67,17.02-24.58,21.93-34.24,35.82c-2.5,3.6-5.79,7.65-10.99,5.7
		c-5.62-2.11-3.64-7.56-3.65-11.72C2.72,319.43,2.76,267.62,2.76,215.8z"/>
	<path class="st0" d="M163.68,433.99c-35.74,0-71.47,0-107.21,0c-15.57,0-28.82-5.38-39.07-17.28c-9.47-10.99-9.13-17.51,1.85-27.12
		c37.77-33.04,81.67-55.55,128.08-73.55c51.52-19.97,104.87-31.79,160.12-34.58c16.54-0.83,20.27,2.64,20.35,18.51
		c0.13,25,0.3,50-0.03,74.99c-0.5,37-22.88,58.99-59.55,59.01C233.37,434.01,198.52,433.99,163.68,433.99z"/>
	<path class="st0" d="M120.81,300.51c0-19.26,0.22-36.57-0.12-53.87c-0.12-6.13,1.38-8.64,8.07-8.5c19.13,0.4,38.28,0.33,57.42,0.03
		c6.12-0.1,8.4,1.52,8.72,8.12c1.08,21.91,1.4,21.93-18.67,29.31C157.93,282.34,140.18,290.37,120.81,300.51z"/>
	<path class="st0" d="M1580.31,213.01c-2.45-56.18-33.64-94.86-88.02-108.64c-41.87-10.61-83.96-10.81-125.96-0.73
		c-55.32,13.27-84.06,44.99-88.9,101.37c-5.51,64.12,4.99,124.62,40.45,180.48c48.99,77.17,148.42,83.75,206.74,14.4
		c40.5-48.16,53.97-107.49,55.72-169.48C1580.34,224.61,1580.56,218.8,1580.31,213.01z M1457.82,341.59
		c-16.07,27.66-43.89,27.06-61.95-0.37c-14.15-21.48-24.54-61.46-24.75-97.19c0-5.79-0.5-11.64,0.08-17.38
		c3.21-31.49,24.28-50,56.58-50.03c33.6-0.03,53.63,16.91,56.46,49.55C1487.8,267.3,1478.48,306.03,1457.82,341.59z"/>
</g>
</svg>
